<svg width="1988" height="712" viewBox="0 0 1988 712" fill="none" xmlns="http://www.w3.org/2000/svg">
<g filter="url(#filter0_d_41_34926)">
<path d="M860.932 578L856.698 538.587H861.548L864.473 570.687H864.858L878.56 538.587H883.949L887.028 570.687H887.413L900.961 538.587H905.811L888.491 578H883.564L880.1 546.592H879.792L865.859 578H860.932ZM912.066 560.218L909.141 578H904.599L911.142 538.587H915.684L913.297 553.059H913.682C914.606 551.519 915.838 550.3 917.377 549.402C918.93 548.504 920.88 548.055 923.228 548.055C925.229 548.055 926.916 548.459 928.289 549.267C929.675 550.063 930.65 551.288 931.214 552.943C931.792 554.585 931.875 556.677 931.465 559.217L928.308 578H923.767L926.846 559.525C927.231 557.177 926.916 555.362 925.903 554.079C924.902 552.783 923.343 552.135 921.226 552.135C919.738 552.135 918.352 552.449 917.069 553.078C915.799 553.707 914.722 554.624 913.836 555.83C912.964 557.036 912.374 558.499 912.066 560.218ZM948.934 578.616C946.099 578.616 943.757 577.987 941.91 576.73C940.062 575.46 938.773 573.689 938.042 571.418C937.31 569.135 937.195 566.479 937.695 563.451C938.195 560.423 939.19 557.754 940.678 555.445C942.166 553.123 944.02 551.314 946.24 550.018C948.459 548.709 950.897 548.055 953.553 548.055C955.092 548.055 956.574 548.312 957.998 548.825C959.423 549.338 960.654 550.172 961.693 551.327C962.733 552.468 963.458 553.982 963.868 555.868C964.279 557.754 964.253 560.077 963.791 562.835L963.483 564.76H940.697L941.313 560.834H959.48C959.775 559.166 959.698 557.677 959.249 556.369C958.813 555.06 958.05 554.027 956.959 553.27C955.882 552.513 954.515 552.135 952.86 552.135C951.154 552.135 949.563 552.597 948.087 553.521C946.612 554.431 945.38 555.586 944.392 556.985C943.404 558.37 942.789 559.782 942.545 561.218L942.006 564.606C941.621 567.056 941.679 569.006 942.179 570.456C942.692 571.906 943.584 572.951 944.854 573.593C946.124 574.222 947.715 574.536 949.627 574.536C950.846 574.536 951.968 574.369 952.995 574.036C954.021 573.689 954.939 573.176 955.747 572.496C956.555 571.803 957.235 570.944 957.787 569.917L961.944 571.149C961.238 572.637 960.244 573.946 958.961 575.075C957.691 576.191 956.202 577.063 954.496 577.692C952.802 578.308 950.948 578.616 948.934 578.616ZM968.266 578L973.192 548.44H977.58L976.81 552.905H977.118C977.888 551.442 979.062 550.255 980.64 549.344C982.218 548.433 983.892 547.978 985.663 547.978C986.009 547.978 986.426 547.984 986.914 547.997C987.401 547.997 987.78 548.016 988.049 548.055L987.28 552.674C987.126 552.635 986.779 552.578 986.24 552.501C985.701 552.411 985.124 552.366 984.508 552.366C983.071 552.366 981.743 552.667 980.525 553.27C979.306 553.861 978.286 554.682 977.465 555.734C976.644 556.773 976.118 557.96 975.887 559.294L972.807 578H968.266ZM999.952 578.616C997.117 578.616 994.775 577.987 992.928 576.73C991.08 575.46 989.791 573.689 989.06 571.418C988.328 569.135 988.213 566.479 988.713 563.451C989.214 560.423 990.208 557.754 991.696 555.445C993.185 553.123 995.038 551.314 997.258 550.018C999.478 548.709 1001.92 548.055 1004.57 548.055C1006.11 548.055 1007.59 548.312 1009.02 548.825C1010.44 549.338 1011.67 550.172 1012.71 551.327C1013.75 552.468 1014.48 553.982 1014.89 555.868C1015.3 557.754 1015.27 560.077 1014.81 562.835L1014.5 564.76H991.715L992.331 560.834H1010.5C1010.79 559.166 1010.72 557.677 1010.27 556.369C1009.83 555.06 1009.07 554.027 1007.98 553.27C1006.9 552.513 1005.53 552.135 1003.88 552.135C1002.17 552.135 1000.58 552.597 999.106 553.521C997.63 554.431 996.398 555.586 995.41 556.985C994.423 558.37 993.807 559.782 993.563 561.218L993.024 564.606C992.639 567.056 992.697 569.006 993.197 570.456C993.711 571.906 994.602 572.951 995.872 573.593C997.143 574.222 998.733 574.536 1000.65 574.536C1001.86 574.536 1002.99 574.369 1004.01 574.036C1005.04 573.689 1005.96 573.176 1006.76 572.496C1007.57 571.803 1008.25 570.944 1008.8 569.917L1012.96 571.149C1012.26 572.637 1011.26 573.946 1009.98 575.075C1008.71 576.191 1007.22 577.063 1005.51 577.692C1003.82 578.308 1001.97 578.616 999.952 578.616ZM1047.46 578H1035.14L1041.68 538.587H1054.23C1058.06 538.587 1061.21 539.388 1063.68 540.992C1066.17 542.596 1067.9 544.886 1068.88 547.863C1069.87 550.839 1070.01 554.393 1069.32 558.524C1068.65 562.578 1067.36 566.062 1065.43 568.974C1063.52 571.874 1061.05 574.106 1058 575.671C1054.98 577.224 1051.46 578 1047.46 578ZM1040.63 573.766H1047.61C1050.87 573.766 1053.68 573.125 1056.04 571.842C1058.41 570.559 1060.33 568.73 1061.78 566.357C1063.24 563.983 1064.24 561.167 1064.78 557.908C1065.32 554.778 1065.27 552.09 1064.62 549.845C1064 547.587 1062.76 545.855 1060.91 544.649C1059.08 543.43 1056.62 542.82 1053.54 542.82H1045.75L1040.63 573.766ZM1073.48 578L1078.4 548.44H1082.95L1078.02 578H1073.48ZM1082.06 543.436C1081.18 543.436 1080.41 543.135 1079.77 542.532C1079.14 541.929 1078.83 541.204 1078.83 540.357C1078.83 539.51 1079.14 538.785 1079.77 538.182C1080.41 537.579 1081.18 537.278 1082.06 537.278C1082.95 537.278 1083.7 537.579 1084.33 538.182C1084.97 538.785 1085.29 539.51 1085.29 540.357C1085.29 541.204 1084.97 541.929 1084.33 542.532C1083.7 543.135 1082.95 543.436 1082.06 543.436ZM1111.13 555.06L1106.81 556.215C1106.66 555.522 1106.39 554.855 1106.01 554.213C1105.63 553.559 1105.06 553.027 1104.27 552.616C1103.5 552.193 1102.45 551.981 1101.12 551.981C1099.31 551.981 1097.74 552.398 1096.4 553.232C1095.07 554.053 1094.31 555.099 1094.11 556.369C1093.92 557.485 1094.18 558.377 1094.88 559.044C1095.59 559.711 1096.77 560.256 1098.42 560.68L1102.66 561.757C1105.2 562.412 1107.01 563.393 1108.08 564.702C1109.17 565.998 1109.55 567.685 1109.2 569.763C1108.92 571.457 1108.18 572.971 1106.99 574.305C1105.79 575.639 1104.27 576.691 1102.41 577.461C1100.55 578.231 1098.47 578.616 1096.19 578.616C1093.15 578.616 1090.75 577.962 1088.99 576.653C1087.24 575.331 1086.3 573.42 1086.18 570.918L1090.73 569.84C1090.84 571.418 1091.41 572.611 1092.42 573.42C1093.45 574.215 1094.88 574.613 1096.73 574.613C1098.85 574.613 1100.61 574.164 1102.02 573.266C1103.43 572.355 1104.24 571.264 1104.43 569.994C1104.62 568.955 1104.42 568.089 1103.81 567.396C1103.22 566.703 1102.2 566.184 1100.73 565.837L1096.04 564.683C1093.42 564.028 1091.59 563.027 1090.53 561.68C1089.49 560.333 1089.15 558.64 1089.49 556.6C1089.78 554.932 1090.49 553.456 1091.65 552.173C1092.82 550.89 1094.28 549.883 1096.04 549.152C1097.81 548.421 1099.73 548.055 1101.81 548.055C1104.74 548.055 1106.92 548.696 1108.37 549.979C1109.82 551.25 1110.74 552.943 1111.13 555.06ZM1126.58 578.616C1123.8 578.616 1121.52 577.962 1119.73 576.653C1117.96 575.344 1116.73 573.542 1116.04 571.245C1115.34 568.948 1115.24 566.325 1115.73 563.374C1116.22 560.372 1117.2 557.722 1118.69 555.426C1120.18 553.116 1122.04 551.314 1124.25 550.018C1126.47 548.709 1128.92 548.055 1131.59 548.055C1133.67 548.055 1135.47 548.44 1137.01 549.21C1138.55 549.979 1139.74 551.057 1140.57 552.443C1141.41 553.828 1141.8 555.445 1141.75 557.293H1137.21C1137.08 555.945 1136.5 554.752 1135.47 553.713C1134.46 552.661 1132.96 552.135 1130.97 552.135C1129.2 552.135 1127.57 552.597 1126.08 553.521C1124.59 554.431 1123.34 555.721 1122.33 557.389C1121.32 559.044 1120.63 560.988 1120.27 563.22C1119.89 565.504 1119.92 567.492 1120.37 569.186C1120.82 570.879 1121.63 572.194 1122.81 573.131C1123.99 574.068 1125.48 574.536 1127.28 574.536C1128.46 574.536 1129.56 574.331 1130.59 573.92C1131.61 573.51 1132.52 572.919 1133.32 572.15C1134.11 571.38 1134.74 570.456 1135.21 569.378H1139.75C1139.18 571.123 1138.28 572.695 1137.03 574.093C1135.79 575.479 1134.28 576.582 1132.51 577.403C1130.74 578.212 1128.76 578.616 1126.58 578.616ZM1157.13 578.616C1154.41 578.616 1152.13 577.968 1150.29 576.672C1148.46 575.376 1147.16 573.561 1146.41 571.226C1145.66 568.891 1145.54 566.171 1146.04 563.066C1146.53 560.038 1147.5 557.402 1148.95 555.156C1150.41 552.898 1152.22 551.153 1154.39 549.922C1156.57 548.677 1158.97 548.055 1161.59 548.055C1164.31 548.055 1166.58 548.709 1168.4 550.018C1170.24 551.314 1171.53 553.136 1172.29 555.484C1173.05 557.819 1173.18 560.551 1172.67 563.682C1172.19 566.684 1171.21 569.308 1169.73 571.553C1168.27 573.785 1166.45 575.524 1164.28 576.768C1162.13 578 1159.74 578.616 1157.13 578.616ZM1157.2 574.536C1159.28 574.536 1161.08 574.003 1162.61 572.939C1164.15 571.874 1165.39 570.469 1166.34 568.724C1167.31 566.979 1167.95 565.093 1168.29 563.066C1168.6 561.141 1168.58 559.352 1168.25 557.697C1167.92 556.029 1167.2 554.688 1166.11 553.674C1165.02 552.648 1163.49 552.135 1161.51 552.135C1159.43 552.135 1157.62 552.674 1156.07 553.751C1154.53 554.829 1153.28 556.247 1152.33 558.005C1151.38 559.762 1150.75 561.655 1150.43 563.682C1150.12 565.606 1150.13 567.396 1150.45 569.051C1150.78 570.693 1151.49 572.021 1152.58 573.035C1153.69 574.036 1155.23 574.536 1157.2 574.536ZM1205.3 548.44L1189.44 578H1184.82L1178.82 548.44H1183.55L1187.79 571.996H1188.09L1200.18 548.44H1205.3ZM1217.63 578.616C1214.79 578.616 1212.45 577.987 1210.6 576.73C1208.75 575.46 1207.46 573.689 1206.73 571.418C1206 569.135 1205.89 566.479 1206.39 563.451C1206.89 560.423 1207.88 557.754 1209.37 555.445C1210.86 553.123 1212.71 551.314 1214.93 550.018C1217.15 548.709 1219.59 548.055 1222.24 548.055C1223.78 548.055 1225.27 548.312 1226.69 548.825C1228.11 549.338 1229.35 550.172 1230.39 551.327C1231.42 552.468 1232.15 553.982 1232.56 555.868C1232.97 557.754 1232.95 560.077 1232.48 562.835L1232.18 564.76H1209.39L1210.01 560.834H1228.17C1228.47 559.166 1228.39 557.677 1227.94 556.369C1227.51 555.06 1226.74 554.027 1225.65 553.27C1224.57 552.513 1223.21 552.135 1221.55 552.135C1219.85 552.135 1218.25 552.597 1216.78 553.521C1215.3 554.431 1214.07 555.586 1213.08 556.985C1212.1 558.37 1211.48 559.782 1211.24 561.218L1210.7 564.606C1210.31 567.056 1210.37 569.006 1210.87 570.456C1211.38 571.906 1212.28 572.951 1213.55 573.593C1214.82 574.222 1216.41 574.536 1218.32 574.536C1219.54 574.536 1220.66 574.369 1221.69 574.036C1222.71 573.689 1223.63 573.176 1224.44 572.496C1225.25 571.803 1225.93 570.944 1226.48 569.917L1230.64 571.149C1229.93 572.637 1228.94 573.946 1227.65 575.075C1226.38 576.191 1224.89 577.063 1223.19 577.692C1221.49 578.308 1219.64 578.616 1217.63 578.616ZM1236.96 578L1241.88 548.44H1246.27L1245.5 552.905H1245.81C1246.58 551.442 1247.75 550.255 1249.33 549.344C1250.91 548.433 1252.58 547.978 1254.36 547.978C1254.7 547.978 1255.12 547.984 1255.61 547.997C1256.09 547.997 1256.47 548.016 1256.74 548.055L1255.97 552.674C1255.82 552.635 1255.47 552.578 1254.93 552.501C1254.39 552.411 1253.82 552.366 1253.2 552.366C1251.76 552.366 1250.44 552.667 1249.22 553.27C1248 553.861 1246.98 554.682 1246.16 555.734C1245.34 556.773 1244.81 557.96 1244.58 559.294L1241.5 578H1236.96ZM1259.24 589.085C1258.47 589.085 1257.79 589.021 1257.2 588.893C1256.63 588.777 1256.23 588.662 1256.01 588.546L1257.86 584.543C1258.91 584.826 1259.85 584.909 1260.67 584.793C1261.5 584.691 1262.29 584.287 1263.03 583.581C1263.79 582.888 1264.58 581.798 1265.4 580.309L1266.67 578L1260.74 548.44H1265.48L1269.71 572.073H1270.02L1282.11 548.44H1287.23L1269.1 582.272C1268.25 583.85 1267.32 585.14 1266.31 586.141C1265.29 587.141 1264.2 587.879 1263.02 588.354C1261.83 588.841 1260.58 589.085 1259.24 589.085ZM1310.69 538.587H1316.39L1324.4 571.303H1324.86L1343.64 538.587H1349.34L1342.79 578H1338.33L1343.33 548.055H1342.95L1325.63 578H1321.32L1314 548.055H1313.62L1308.62 578H1304.15L1310.69 538.587ZM1364.07 578.616C1361.23 578.616 1358.89 577.987 1357.04 576.73C1355.19 575.46 1353.9 573.689 1353.17 571.418C1352.44 569.135 1352.33 566.479 1352.83 563.451C1353.33 560.423 1354.32 557.754 1355.81 555.445C1357.3 553.123 1359.15 551.314 1361.37 550.018C1363.59 548.709 1366.03 548.055 1368.68 548.055C1370.22 548.055 1371.71 548.312 1373.13 548.825C1374.55 549.338 1375.79 550.172 1376.82 551.327C1377.86 552.468 1378.59 553.982 1379 555.868C1379.41 557.754 1379.38 560.077 1378.92 562.835L1378.61 564.76H1355.83L1356.44 560.834H1374.61C1374.91 559.166 1374.83 557.677 1374.38 556.369C1373.94 555.06 1373.18 554.027 1372.09 553.27C1371.01 552.513 1369.65 552.135 1367.99 552.135C1366.28 552.135 1364.69 552.597 1363.22 553.521C1361.74 554.431 1360.51 555.586 1359.52 556.985C1358.54 558.37 1357.92 559.782 1357.68 561.218L1357.14 564.606C1356.75 567.056 1356.81 569.006 1357.31 570.456C1357.82 571.906 1358.72 572.951 1359.99 573.593C1361.26 574.222 1362.85 574.536 1364.76 574.536C1365.98 574.536 1367.1 574.369 1368.13 574.036C1369.15 573.689 1370.07 573.176 1370.88 572.496C1371.69 571.803 1372.37 570.944 1372.92 569.917L1377.07 571.149C1376.37 572.637 1375.37 573.946 1374.09 575.075C1372.82 576.191 1371.33 577.063 1369.63 577.692C1367.93 578.308 1366.08 578.616 1364.07 578.616ZM1395.71 578.616C1392.88 578.616 1390.54 577.987 1388.69 576.73C1386.84 575.46 1385.55 573.689 1384.82 571.418C1384.09 569.135 1383.97 566.479 1384.47 563.451C1384.97 560.423 1385.97 557.754 1387.46 555.445C1388.95 553.123 1390.8 551.314 1393.02 550.018C1395.24 548.709 1397.68 548.055 1400.33 548.055C1401.87 548.055 1403.35 548.312 1404.78 548.825C1406.2 549.338 1407.43 550.172 1408.47 551.327C1409.51 552.468 1410.24 553.982 1410.65 555.868C1411.06 557.754 1411.03 560.077 1410.57 562.835L1410.26 564.76H1387.48L1388.09 560.834H1406.26C1406.55 559.166 1406.48 557.677 1406.03 556.369C1405.59 555.06 1404.83 554.027 1403.74 553.27C1402.66 552.513 1401.29 552.135 1399.64 552.135C1397.93 552.135 1396.34 552.597 1394.87 553.521C1393.39 554.431 1392.16 555.586 1391.17 556.985C1390.18 558.37 1389.57 559.782 1389.32 561.218L1388.79 564.606C1388.4 567.056 1388.46 569.006 1388.96 570.456C1389.47 571.906 1390.36 572.951 1391.63 573.593C1392.9 574.222 1394.49 574.536 1396.41 574.536C1397.63 574.536 1398.75 574.369 1399.77 574.036C1400.8 573.689 1401.72 573.176 1402.53 572.496C1403.33 571.803 1404.01 570.944 1404.57 569.917L1408.72 571.149C1408.02 572.637 1407.02 573.946 1405.74 575.075C1404.47 576.191 1402.98 577.063 1401.28 577.692C1399.58 578.308 1397.73 578.616 1395.71 578.616ZM1432.83 548.44L1432.21 552.289H1416.89L1417.51 548.44H1432.83ZM1423.13 541.358H1427.67L1422.97 569.532C1422.77 570.815 1422.8 571.777 1423.07 572.419C1423.35 573.048 1423.78 573.471 1424.34 573.689C1424.92 573.894 1425.54 573.997 1426.21 573.997C1426.71 573.997 1427.12 573.971 1427.44 573.92C1427.76 573.856 1428.02 573.805 1428.21 573.766L1428.52 577.846C1428.17 577.962 1427.7 578.077 1427.11 578.192C1426.53 578.321 1425.82 578.385 1424.98 578.385C1423.69 578.385 1422.49 578.109 1421.36 577.557C1420.23 577.006 1419.36 576.165 1418.76 575.036C1418.16 573.907 1418 572.483 1418.28 570.764L1423.13 541.358ZM1458.99 555.06L1454.68 556.215C1454.53 555.522 1454.26 554.855 1453.87 554.213C1453.5 553.559 1452.92 553.027 1452.14 552.616C1451.37 552.193 1450.32 551.981 1448.98 551.981C1447.17 551.981 1445.6 552.398 1444.27 553.232C1442.93 554.053 1442.17 555.099 1441.98 556.369C1441.79 557.485 1442.04 558.377 1442.75 559.044C1443.45 559.711 1444.63 560.256 1446.29 560.68L1450.52 561.757C1453.06 562.412 1454.87 563.393 1455.95 564.702C1457.04 565.998 1457.41 567.685 1457.07 569.763C1456.78 571.457 1456.05 572.971 1454.85 574.305C1453.66 575.639 1452.13 576.691 1450.27 577.461C1448.41 578.231 1446.34 578.616 1444.06 578.616C1441.02 578.616 1438.62 577.962 1436.86 576.653C1435.1 575.331 1434.16 573.42 1434.05 570.918L1438.59 569.84C1438.71 571.418 1439.27 572.611 1440.28 573.42C1441.31 574.215 1442.75 574.613 1444.6 574.613C1446.71 574.613 1448.48 574.164 1449.89 573.266C1451.3 572.355 1452.1 571.264 1452.29 569.994C1452.49 568.955 1452.28 568.089 1451.68 567.396C1451.09 566.703 1450.06 566.184 1448.6 565.837L1443.9 564.683C1441.29 564.028 1439.45 563.027 1438.4 561.68C1437.36 560.333 1437.01 558.64 1437.36 556.6C1437.64 554.932 1438.36 553.456 1439.51 552.173C1440.68 550.89 1442.14 549.883 1443.9 549.152C1445.67 548.421 1447.6 548.055 1449.68 548.055C1452.6 548.055 1454.79 548.696 1456.24 549.979C1457.69 551.25 1458.61 552.943 1458.99 555.06ZM1479.99 578H1474.99L1496 538.587H1500.93L1508.86 578H1503.86L1497.62 544.822H1497.31L1479.99 578ZM1484.38 562.604H1504.55L1503.86 566.838H1483.69L1484.38 562.604ZM1525.51 578.616C1523.03 578.616 1520.95 577.994 1519.27 576.749C1517.59 575.492 1516.4 573.721 1515.71 571.437C1515.03 569.141 1514.95 566.427 1515.46 563.297C1515.99 560.192 1516.97 557.498 1518.4 555.214C1519.85 552.93 1521.63 551.166 1523.74 549.922C1525.84 548.677 1528.14 548.055 1530.62 548.055C1532.55 548.055 1534.02 548.376 1535.03 549.017C1536.06 549.646 1536.8 550.364 1537.26 551.173C1537.73 551.968 1538.08 552.622 1538.32 553.136H1538.71L1541.13 538.587H1545.67L1539.13 578H1534.74L1535.51 573.458H1534.97C1534.55 573.997 1533.96 574.677 1533.2 575.498C1532.45 576.306 1531.45 577.031 1530.2 577.673C1528.97 578.302 1527.4 578.616 1525.51 578.616ZM1526.62 574.536C1528.44 574.536 1530.07 574.061 1531.51 573.112C1532.96 572.15 1534.17 570.822 1535.13 569.128C1536.09 567.422 1536.76 565.452 1537.13 563.22C1537.5 561.013 1537.49 559.082 1537.09 557.427C1536.69 555.759 1535.93 554.464 1534.8 553.54C1533.67 552.603 1532.18 552.135 1530.32 552.135C1528.41 552.135 1526.74 552.629 1525.33 553.617C1523.92 554.592 1522.77 555.92 1521.89 557.6C1521 559.268 1520.39 561.141 1520.04 563.22C1519.69 565.324 1519.69 567.236 1520.02 568.955C1520.35 570.661 1521.06 572.021 1522.14 573.035C1523.23 574.036 1524.72 574.536 1526.62 574.536ZM1577.14 548.44L1561.28 578H1556.66L1550.66 548.44H1555.39L1559.63 571.996H1559.93L1572.02 548.44H1577.14ZM1589.47 578.616C1586.63 578.616 1584.29 577.987 1582.44 576.73C1580.59 575.46 1579.3 573.689 1578.57 571.418C1577.84 569.135 1577.73 566.479 1578.23 563.451C1578.73 560.423 1579.72 557.754 1581.21 555.445C1582.7 553.123 1584.55 551.314 1586.77 550.018C1588.99 548.709 1591.43 548.055 1594.08 548.055C1595.62 548.055 1597.11 548.312 1598.53 548.825C1599.95 549.338 1601.19 550.172 1602.23 551.327C1603.26 552.468 1603.99 553.982 1604.4 555.868C1604.81 557.754 1604.78 560.077 1604.32 562.835L1604.02 564.76H1581.23L1581.84 560.834H1600.01C1600.31 559.166 1600.23 557.677 1599.78 556.369C1599.34 555.06 1598.58 554.027 1597.49 553.27C1596.41 552.513 1595.05 552.135 1593.39 552.135C1591.69 552.135 1590.09 552.597 1588.62 553.521C1587.14 554.431 1585.91 555.586 1584.92 556.985C1583.94 558.37 1583.32 559.782 1583.08 561.218L1582.54 564.606C1582.15 567.056 1582.21 569.006 1582.71 570.456C1583.22 571.906 1584.12 572.951 1585.39 573.593C1586.66 574.222 1588.25 574.536 1590.16 574.536C1591.38 574.536 1592.5 574.369 1593.53 574.036C1594.55 573.689 1595.47 573.176 1596.28 572.496C1597.09 571.803 1597.77 570.944 1598.32 569.917L1602.48 571.149C1601.77 572.637 1600.78 573.946 1599.49 575.075C1598.22 576.191 1596.73 577.063 1595.03 577.692C1593.33 578.308 1591.48 578.616 1589.47 578.616ZM1616.26 560.218L1613.34 578H1608.8L1613.72 548.44H1618.11L1617.34 553.059H1617.73C1618.65 551.558 1619.9 550.352 1621.48 549.441C1623.06 548.517 1624.96 548.055 1627.2 548.055C1629.17 548.055 1630.84 548.466 1632.2 549.287C1633.57 550.095 1634.54 551.327 1635.11 552.982C1635.68 554.624 1635.77 556.702 1635.36 559.217L1632.2 578H1627.66L1630.74 559.525C1631.12 557.216 1630.82 555.407 1629.83 554.098C1628.86 552.789 1627.31 552.135 1625.19 552.135C1623.73 552.135 1622.38 552.449 1621.13 553.078C1619.9 553.707 1618.86 554.624 1618 555.83C1617.15 557.036 1616.57 558.499 1616.26 560.218ZM1658.28 548.44L1657.66 552.289H1642.35L1642.96 548.44H1658.28ZM1648.58 541.358H1653.12L1648.43 569.532C1648.22 570.815 1648.25 571.777 1648.52 572.419C1648.81 573.048 1649.23 573.471 1649.79 573.689C1650.37 573.894 1650.99 573.997 1651.66 573.997C1652.16 573.997 1652.57 573.971 1652.89 573.92C1653.21 573.856 1653.47 573.805 1653.66 573.766L1653.97 577.846C1653.62 577.962 1653.16 578.077 1652.57 578.192C1651.99 578.321 1651.28 578.385 1650.43 578.385C1649.15 578.385 1647.94 578.109 1646.81 577.557C1645.68 577.006 1644.82 576.165 1644.21 575.036C1643.61 573.907 1643.45 572.483 1643.73 570.764L1648.58 541.358ZM1680.82 565.914L1683.74 548.44H1688.28L1683.36 578H1678.82L1679.66 572.996H1679.35C1678.43 574.497 1677.14 575.774 1675.49 576.826C1673.83 577.865 1671.89 578.385 1669.65 578.385C1667.81 578.385 1666.23 577.981 1664.92 577.172C1663.62 576.351 1662.7 575.12 1662.15 573.477C1661.61 571.822 1661.55 569.738 1661.96 567.223L1665.11 548.44H1669.65L1666.58 566.915C1666.23 569.07 1666.56 570.79 1667.56 572.073C1668.56 573.356 1670 573.997 1671.89 573.997C1673.02 573.997 1674.21 573.708 1675.47 573.131C1676.74 572.554 1677.87 571.668 1678.85 570.475C1679.85 569.282 1680.51 567.762 1680.82 565.914ZM1691.68 578L1696.6 548.44H1700.99L1700.22 552.905H1700.53C1701.3 551.442 1702.47 550.255 1704.05 549.344C1705.63 548.433 1707.3 547.978 1709.07 547.978C1709.42 547.978 1709.84 547.984 1710.32 547.997C1710.81 547.997 1711.19 548.016 1711.46 548.055L1710.69 552.674C1710.54 552.635 1710.19 552.578 1709.65 552.501C1709.11 552.411 1708.53 552.366 1707.92 552.366C1706.48 552.366 1705.15 552.667 1703.93 553.27C1702.72 553.861 1701.7 554.682 1700.87 555.734C1700.05 556.773 1699.53 557.96 1699.3 559.294L1696.22 578H1691.68ZM1723.36 578.616C1720.53 578.616 1718.19 577.987 1716.34 576.73C1714.49 575.46 1713.2 573.689 1712.47 571.418C1711.74 569.135 1711.62 566.479 1712.12 563.451C1712.62 560.423 1713.62 557.754 1715.11 555.445C1716.59 553.123 1718.45 551.314 1720.67 550.018C1722.89 548.709 1725.33 548.055 1727.98 548.055C1729.52 548.055 1731 548.312 1732.43 548.825C1733.85 549.338 1735.08 550.172 1736.12 551.327C1737.16 552.468 1737.89 553.982 1738.3 555.868C1738.71 557.754 1738.68 560.077 1738.22 562.835L1737.91 564.76H1715.13L1715.74 560.834H1733.91C1734.2 559.166 1734.13 557.677 1733.68 556.369C1733.24 555.06 1732.48 554.027 1731.39 553.27C1730.31 552.513 1728.94 552.135 1727.29 552.135C1725.58 552.135 1723.99 552.597 1722.52 553.521C1721.04 554.431 1719.81 555.586 1718.82 556.985C1717.83 558.37 1717.22 559.782 1716.97 561.218L1716.43 564.606C1716.05 567.056 1716.11 569.006 1716.61 570.456C1717.12 571.906 1718.01 572.951 1719.28 573.593C1720.55 574.222 1722.14 574.536 1724.05 574.536C1725.27 574.536 1726.4 574.369 1727.42 574.036C1728.45 573.689 1729.37 573.176 1730.17 572.496C1730.98 571.803 1731.66 570.944 1732.21 569.917L1736.37 571.149C1735.67 572.637 1734.67 573.946 1733.39 575.075C1732.12 576.191 1730.63 577.063 1728.92 577.692C1727.23 578.308 1725.38 578.616 1723.36 578.616Z" fill="#333333"/>
<path d="M618.094 195.52L633.691 178.143C631.14 174.145 628.117 170.29 624.48 166.615C618.275 161.031 611.709 156.912 604.792 154.203L612.975 186.814C615.146 189.54 616.821 192.455 618.094 195.52Z" fill="#4E51AC"/>
<path d="M566.81 176.351C571.979 173.636 577.602 172.237 583.711 172.237C592.014 172.237 599.778 175.05 607.011 180.672C609.281 182.613 611.265 184.662 612.977 186.812L604.793 154.201C598.281 151.651 591.459 150.347 584.316 150.347H582.911C581.609 150.347 580.333 150.45 579.052 150.535L557.712 172.317L566.81 176.351Z" fill="#4F54AE"/>
<path d="M619.071 198.074H641.719C640.383 191.031 637.681 184.394 633.691 178.141L618.094 195.518C618.446 196.361 618.787 197.206 619.071 198.074Z" fill="#5551AD"/>
<path d="M579.051 150.535C567.178 151.33 556.217 155.751 546.187 163.915L557.711 172.316L579.051 150.535Z" fill="#4856AF"/>
<path d="M620.565 204.924L638.724 230.988C641.388 224.335 642.754 217.411 642.754 210.2V208.994C642.754 205.253 642.387 201.62 641.716 198.079H619.068C619.785 200.279 620.286 202.559 620.565 204.924Z" fill="#5550AB"/>
<path d="M566.809 176.356L557.71 172.322L559.459 181.418C561.795 179.4 564.242 177.706 566.809 176.356Z" fill="#4F50AC"/>
<path d="M589.332 219.835C592.813 216.488 594.551 213.273 594.551 210.196V208.789C594.551 207.85 594.287 206.781 593.747 205.578C591.474 200.889 588.127 198.548 583.706 198.548H583.506C580.827 198.548 578.356 199.483 576.077 201.358L565.667 213.72L571.032 241.613C582.486 227.99 588.621 220.687 589.332 219.835Z" fill="#4F50AC"/>
<path d="M546.187 163.915C544.616 165.194 543.068 166.559 541.539 168.019C541.207 168.386 540.493 169.207 539.404 170.477L557.711 172.316L546.187 163.915Z" fill="#465EB4"/>
<path d="M571.035 241.612L565.67 213.719L547.158 235.699C544.377 239.017 539.972 244.258 534.062 251.289L559.43 255.414C563.794 250.225 567.625 245.669 571.035 241.612Z" fill="#525BB3"/>
<path d="M559.457 181.413L557.708 172.318L519.651 227.973C542.382 200.938 553.909 187.163 554.187 186.697C555.866 184.715 557.635 182.988 559.457 181.413Z" fill="#525BB3"/>
<path d="M620.864 209.594C620.864 217.09 618.526 224.319 613.834 231.282L593.964 254.938L626.642 250.201C632.01 244.076 636.051 237.673 638.727 230.984L620.568 204.92C620.751 206.446 620.864 207.999 620.864 209.594Z" fill="#6055AF"/>
<path d="M519.654 227.976L557.711 172.321L539.404 170.482C534.155 176.598 520.062 193.281 497.261 220.367L505.859 244.375C510.837 238.457 515.443 232.982 519.654 227.976Z" fill="#465AB2"/>
<path d="M592.747 256.386L582.483 268.582L596.224 286.344L625.484 251.568C625.894 251.117 626.244 250.654 626.641 250.201L593.963 254.938L592.747 256.386Z" fill="#4F50AC"/>
<path d="M548.235 309.289L560.897 328.34L565.694 322.636L570.957 282.284L548.235 309.289Z" fill="#5256AF"/>
<path d="M559.43 255.416L534.061 251.291C530.194 255.891 525.657 261.286 520.451 267.477L533.181 286.633C543.277 274.626 552.056 264.186 559.43 255.416Z" fill="#5256AF"/>
<path d="M570.96 282.281L565.697 322.633L596.227 286.345L582.486 268.584L570.96 282.281Z" fill="#4F50AC"/>
<path d="M511.88 311.977C516.978 305.91 522.25 299.636 527.878 292.939C529.7 290.772 531.439 288.705 533.18 286.635L520.45 267.479C516.294 272.419 511.751 277.82 506.741 283.775V309.873L511.88 311.977Z" fill="#4D55AE"/>
<path d="M537.234 322.355L558.571 331.094L560.895 328.333L548.233 309.282L537.234 322.355Z" fill="#4D55AE"/>
<path d="M505.855 244.376L497.256 220.368C490.929 227.882 483.945 236.183 476.267 245.312L503.891 246.707C504.541 245.936 505.217 245.132 505.855 244.376Z" fill="#4C71C1"/>
<path d="M506.75 283.777C503.337 287.833 499.688 292.171 495.88 296.698L506.75 309.875V283.777Z" fill="#496BBC"/>
<path d="M482.894 271.653C490.53 262.586 497.486 254.323 503.895 246.706L476.27 245.311C472.598 249.68 468.75 254.254 464.768 258.991L479.029 276.277C480.238 274.835 481.507 273.317 482.894 271.653Z" fill="#496BBC"/>
<path d="M527.236 334.245C524.384 337.635 520.21 339.122 516.152 338.78L529.214 378.922L555.181 377.899C546.962 368.156 540.921 361.035 537.118 356.601L558.574 331.097L537.238 322.358L527.236 334.245Z" fill="#8F56B1"/>
<path d="M508.672 315.793C509.717 314.548 510.815 313.244 511.883 311.972L506.743 309.869L508.672 315.793Z" fill="#8F56B1"/>
<path d="M495.88 296.696C491.419 301.999 486.686 307.626 481.68 313.574L506.75 309.873L495.88 296.696Z" fill="#569EDB"/>
<path d="M443.051 319.273L431.482 305.588C431.355 305.432 431.174 305.213 431.036 305.045L425.091 321.926L443.051 319.273Z" fill="#569EDB"/>
<path d="M449.754 286.111C452.703 290.396 456.184 292.539 460.2 292.539C462.479 292.539 464.753 291.737 467.031 290.128C468.057 289.216 472.078 284.576 479.027 276.278L464.766 258.992C463.244 260.803 461.77 262.557 460.2 264.423L449.712 252.002L441.233 276.085C443.992 279.332 446.821 282.659 449.754 286.111Z" fill="#569EDB"/>
<path d="M507.929 334.965C503.23 330.187 502.911 322.649 507.222 317.519C507.69 316.963 508.199 316.356 508.67 315.796L506.741 309.872L485.37 363.028L520.838 375.886L522.657 373.67C522.764 373.723 524.03 375.167 526.365 377.889L529.211 378.922L516.148 338.78C513.163 338.528 510.239 337.316 507.955 334.993L507.929 334.965Z" fill="#5F77C4"/>
<path d="M485.379 363.031L506.75 309.875L481.68 313.576C474.931 321.596 467.745 330.138 460.009 339.332L443.056 319.278L425.096 321.93L485.379 363.031Z" fill="#496BBC"/>
<path d="M401.141 269.326C398.613 266.321 395.98 263.194 393.158 259.843L391.114 274.25L401.141 269.326Z" fill="#52B9EC"/>
<path d="M425.383 257.422L445.816 247.387L402.247 195.802L398.077 225.184C405.36 233.806 414.46 244.553 425.383 257.422Z" fill="#52B9EC"/>
<path d="M425.086 321.926L431.031 305.045C426.583 299.631 416.61 287.715 401.137 269.325L391.11 274.249L425.086 321.926Z" fill="#5BC9E2"/>
<path d="M441.235 276.082L449.715 252L445.818 247.386L425.385 257.42C430.308 263.221 435.572 269.419 441.235 276.082Z" fill="#5BC9E2"/>
<path d="M359.545 180.687L395.48 187.789L394.732 186.904C386.429 176.863 380.544 170.098 377.058 166.617C376.364 165.987 375.65 165.437 374.947 164.843L357.282 178.998C358.029 179.523 358.785 180.09 359.545 180.687Z" fill="#59C9F5"/>
<path d="M393.16 259.843C389.052 254.965 384.631 249.717 379.9 244.107L391.116 274.25L393.16 259.843Z" fill="#5CCAE8"/>
<path d="M361.793 182.479C363.133 183.817 368.358 189.842 377.461 200.554C380.134 203.866 387.041 212.113 398.076 225.18L402.246 195.798L395.479 187.784L359.544 180.682C360.29 181.265 361.033 181.824 361.793 182.479Z" fill="#5CCAE8"/>
<path d="M357.279 178.996L374.943 164.841C363.568 155.223 350.963 150.35 337.091 150.35H335.683C335.18 150.35 334.682 150.441 334.18 150.455L353.589 176.684C354.799 177.354 356.029 178.123 357.279 178.996Z" fill="#6DCFE7"/>
<path d="M318.326 245.726L317.68 246.849L319.992 247.711C319.449 247.065 318.873 246.379 318.326 245.726Z" fill="#75D1D9"/>
<path d="M379.899 244.107C370.107 232.494 358.997 219.33 346.534 204.573C345.68 203.295 344.734 202.293 343.746 201.421L332.175 221.586C346.484 238.572 354.198 247.819 355.171 249.157C356.445 250.578 361.329 256.314 369.744 266.276L391.115 274.25L379.899 244.107Z" fill="#75D1D9"/>
<path d="M391.114 274.249L381.367 280.056C390.285 290.64 401.459 303.926 414.883 319.899L425.09 321.926L391.114 274.249Z" fill="#65C660"/>
<path d="M358.54 293.657L339.601 304.939L373.662 311.707C369.129 306.294 364.113 300.305 358.54 293.657Z" fill="#65C660"/>
<path d="M425.092 321.93L421.113 327.315C428.641 336.274 436.731 345.908 445.542 356.402V356.604C444.375 357.996 443.015 359.619 441.523 361.398L485.375 363.031L425.092 321.93Z" fill="#52C39F"/>
<path d="M407.988 357.006V356.403C407.988 353.983 406.96 351.564 404.977 349.147L397.146 359.745L407.358 360.125C407.732 359.069 407.988 358.024 407.988 357.006Z" fill="#52C39F"/>
<path d="M403.168 347.164C401.995 345.621 392.119 333.756 373.662 311.709L339.601 304.941L397.145 359.742L404.977 349.144C404.435 348.485 403.857 347.823 403.168 347.164Z" fill="#54C4A3"/>
<path d="M414.883 319.901C416.898 322.297 418.994 324.794 421.111 327.312L425.09 321.928L414.883 319.901Z" fill="#54C4A3"/>
<path d="M369.744 266.274C373.063 270.201 376.941 274.799 381.368 280.055L391.115 274.248L369.744 266.274Z" fill="#6DCFE7"/>
<path d="M319.988 247.71L317.676 246.847L339.596 304.938L358.535 293.656C347.671 280.695 334.81 265.366 319.988 247.71Z" fill="#6DCFE7"/>
<path d="M299.151 209.123C299.216 199.725 302.617 191.314 309.381 183.891C317.283 176.124 326.251 172.242 336.292 172.242C339.904 172.242 343.856 172.911 348.142 174.251C349.911 174.801 351.735 175.655 353.594 176.686L334.185 150.457C325.762 150.687 317.478 152.902 309.331 157.004L287.54 215.066L299.151 209.123Z" fill="#78D3E3"/>
<path d="M318.322 245.725C315.777 242.692 313.242 239.673 310.58 236.504C302.952 228.336 299.134 219.298 299.134 209.391C299.134 209.3 299.148 209.211 299.148 209.119L287.536 215.063L317.677 246.848L318.322 245.725Z" fill="#68CCC5"/>
<path d="M336.49 198.548H336.29C334.951 198.548 333.412 198.881 331.669 199.553C327.522 202.094 325.446 205.175 325.446 208.789V210.397C325.446 212.27 326.185 214.214 327.654 216.222C329.253 218.121 330.712 219.851 332.173 221.586L343.744 201.421C341.63 199.557 339.228 198.548 336.49 198.548Z" fill="#68CCC5"/>
<path d="M309.328 157.004C308.141 157.6 306.946 158.108 305.766 158.788C302.148 160.925 298.067 164.211 293.511 168.626C286.651 176.164 281.976 184.298 279.454 193.015L287.537 215.066L309.328 157.004Z" fill="#6ACDCD"/>
<path d="M279.457 193.015C277.992 198.076 277.245 203.334 277.245 208.792V210.2C277.245 210.981 277.302 211.753 277.335 212.527L287.539 215.066L279.457 193.015Z" fill="#83D5D4"/>
<path d="M287.539 215.064L277.335 212.525C277.705 221.492 280.202 230.089 284.857 238.316L287.539 215.064Z" fill="#6BCA83"/>
<path d="M287.539 215.064L284.857 238.316C285.734 239.866 286.664 241.409 287.692 242.933C288.688 244.468 292.557 249.289 299.168 257.234L317.68 246.849L287.539 215.064Z" fill="#75D0BB"/>
<path d="M317.676 246.849L311.362 271.777C321.861 284.276 331.162 295.351 339.337 305.086L339.596 304.94L317.676 246.849Z" fill="#65C660"/>
<path d="M299.168 257.231C302.346 261.054 306.105 265.538 310.583 270.843C310.853 271.163 311.098 271.457 311.366 271.773L317.68 246.846L299.168 257.231Z" fill="#7ED08C"/>
<path d="M339.601 304.939V305.395C367.536 338.664 381.867 355.777 382.484 356.6C381.496 357.849 376.409 363.953 367.333 374.789L397.145 359.74L339.601 304.939Z" fill="#74D1D6"/>
<path d="M339.337 305.084C339.423 305.185 339.513 305.291 339.596 305.395V304.938L339.337 305.084Z" fill="#96D77D"/>
<path d="M397.145 359.736L367.333 374.784C362.173 380.942 355.702 388.652 347.929 397.907C361.47 412.778 386.804 440.733 387.006 441.938L397.145 359.736Z" fill="#5DC241"/>
<path d="M407.352 360.124L397.139 359.744L403.589 365.91C405.423 363.919 406.688 361.99 407.352 360.124Z" fill="#63C660"/>
<path d="M441.523 361.396C436.806 367.02 430.467 374.559 422.523 383.997L440.162 400.855L485.375 363.03L441.523 361.396Z" fill="#63C660"/>
<path d="M505.252 427.293L515.89 405.813C509.898 398.664 506.578 394.689 505.989 393.954L520.84 375.883L485.372 363.025L495.925 416.18C497.941 418.589 501.013 422.248 505.252 427.293Z" fill="#E95EA7"/>
<path d="M528.49 380.375L529.211 378.922L526.365 377.889C527.001 378.632 527.687 379.432 528.49 380.375Z" fill="#E95EA7"/>
<path d="M493.137 412.828C493.295 413.031 494.265 414.198 495.922 416.178L485.369 363.023L440.157 400.849L479.603 424.977C487.295 415.83 491.309 411.13 491.527 411.019L493.137 412.828Z" fill="#AC6DB7"/>
<path d="M419.285 387.842C414.42 393.623 405.66 394.115 400.207 388.886C395.243 384.128 394.836 376.312 399.242 371.033C401.317 368.546 402.362 367.279 402.362 367.248C402.831 366.796 403.183 366.355 403.593 365.909L397.143 359.743C397.143 359.743 387.278 443.589 387.004 441.945L440.16 400.856L422.521 383.997C421.461 385.257 420.402 386.515 419.285 387.842Z" fill="#7ED08C"/>
<path d="M387.006 441.945C387.279 443.589 397.145 359.743 397.145 359.743L387.006 441.945Z" fill="#7ED08C"/>
<path d="M531.449 383.855L529.209 378.921L528.489 380.375C529.376 381.417 530.357 382.569 531.449 383.855Z" fill="#C958B3"/>
<path d="M518.32 442.832L556.242 453.852C537.613 431.696 524.177 415.702 515.888 405.813L505.25 427.293C508.808 431.527 513.195 436.742 518.32 442.832Z" fill="#C958B3"/>
<path d="M531.452 383.858C539.723 393.597 553.883 410.393 573.816 434.105L583.531 411.59C572.205 398.108 562.754 386.877 555.179 377.901L529.212 378.924L531.452 383.858Z" fill="#9C4AAB"/>
<path d="M605.305 437.526C603.914 435.868 602.533 434.222 601.18 432.611L601.551 441.398L605.305 437.526Z" fill="#9A4BAB"/>
<path d="M612.961 446.645C610.347 443.527 607.797 440.487 605.31 437.523L601.556 441.395L612.961 446.645Z" fill="#C551B0"/>
<path d="M585.347 447.832L601.551 441.399L601.18 432.611C594.864 425.083 588.978 418.074 583.531 411.592L573.816 434.107C577.459 438.44 581.316 443.031 585.347 447.832Z" fill="#9945A8"/>
<path d="M633.336 527.434L640.852 518.475C642.072 513.767 642.754 508.894 642.754 503.809C642.754 494.169 640.679 485.263 636.528 477.099C635.055 473.214 629.03 465.249 618.452 453.199C616.575 450.961 614.773 448.81 612.956 446.646L601.551 441.396L633.336 527.434Z" fill="#E9299E"/>
<path d="M583.918 515.055C585.656 515.055 587.199 514.72 588.533 514.05C592.954 511.771 595.164 508.561 595.164 504.411V503.808C595.164 501.8 594.493 499.857 593.156 497.983C591.934 496.435 588.7 492.526 583.517 486.323L574.294 509.292C577.058 513.111 580.264 515.055 583.918 515.055Z" fill="#F1427E"/>
<path d="M609.417 476.495C616.914 484.661 620.663 493.297 620.663 502.403V504.611C620.663 511.29 618.676 517.649 614.733 523.697L633.336 527.434L601.551 441.396L594.563 458.801C599.307 464.449 604.203 470.282 609.417 476.495Z" fill="#F1427E"/>
<path d="M570.637 504.953L565.4 464.744C563.608 462.614 561.87 460.549 560.16 458.514L540.725 469.446C549.48 479.841 559.465 491.693 570.637 504.953Z" fill="#EE8D37"/>
<path d="M540.721 469.441L560.156 458.509C558.846 456.949 557.504 455.353 556.24 453.85L518.318 442.83C524.607 450.305 532.074 459.172 540.721 469.441Z" fill="#EF447E"/>
<path d="M636.183 530.578C638.228 526.694 639.771 522.657 640.852 518.477L633.335 527.435L636.183 530.578Z" fill="#E22B9F"/>
<path d="M630.374 539.555C632.608 536.651 634.559 533.662 636.184 530.573L633.336 527.43L630.374 539.555Z" fill="#EE244C"/>
<path d="M614.733 523.693C613.538 525.526 612.179 527.333 610.619 529.109C602.995 536.606 594.525 540.4 585.213 540.532L596.054 561.336C606.5 559.155 615.985 554.199 624.478 546.381C626.663 544.171 628.582 541.882 630.374 539.554L633.336 527.43L614.733 523.693Z" fill="#EF2968"/>
<path d="M584.71 540.559H582.7C577.975 540.559 573.405 539.529 568.984 537.534L566.016 559.954C571.608 561.716 577.427 562.648 583.506 562.648C587.838 562.648 592.01 562.181 596.051 561.338L585.21 540.534C585.043 540.536 584.877 540.559 584.71 540.559Z" fill="#F14833"/>
<path d="M557.806 530.12L548.164 519.073C547.723 518.521 545.487 515.839 541.582 511.176L557.484 556.503C560.263 557.895 563.109 559.041 566.02 559.957L568.988 537.537C565.146 535.806 561.415 533.353 557.806 530.12Z" fill="#EF3626"/>
<path d="M491.006 450.98L478.116 469.87C483.191 475.903 487.922 481.523 492.322 486.75L515.387 479.978C508.366 471.626 500.28 462.008 491.006 450.98Z" fill="#BD9C32"/>
<path d="M525.1 491.541L518.255 517.554C529.072 530.396 534.8 537.179 535.308 537.751C537.05 540.428 540.462 544.108 545.552 548.796C549.381 551.904 553.365 554.442 557.48 556.504L541.579 511.177C537.749 506.606 532.262 500.066 525.1 491.541Z" fill="#F46B26"/>
<path d="M515.387 479.978L492.323 486.75C502.936 499.362 511.574 509.62 518.256 517.551L525.102 491.538C522.149 488.024 518.904 484.162 515.387 479.978Z" fill="#F68515"/>
<path d="M474.465 431.31V431.107C476.355 428.852 478.031 426.857 479.61 424.981L440.164 400.854L452.086 457.709C457.127 451.693 459.704 448.579 459.803 448.38H460.205C460.205 448.511 461.28 449.852 463.418 452.396C468.616 458.575 473.486 464.363 478.122 469.871L491.012 450.981C485.844 444.836 480.332 438.285 474.465 431.31Z" fill="#F0763A"/>
<path d="M407.554 504.965L440.16 400.854L387.004 441.943L407.554 504.965Z" fill="#D0A436"/>
<path d="M407.558 504.965L413.039 504.05C431.544 482.142 444.57 466.681 452.086 457.71L440.163 400.854L407.558 504.965Z" fill="#F58A47"/>
<path d="M342.341 492.909L407.555 504.965L387.004 441.943L342.341 492.909Z" fill="#F8C309"/>
<path d="M387.004 441.938L347.836 398.016C342.963 403.818 337.627 410.167 331.729 417.185L326.997 434.266L387.004 441.938Z" fill="#B4DC17"/>
<path d="M326.997 434.272L342.341 492.91L387.004 441.944L326.997 434.272Z" fill="#DEE812"/>
<path d="M321.999 428.767C320.946 430.019 319.839 431.334 318.76 432.621L326.998 434.273L321.999 428.767Z" fill="#B4DC17"/>
<path d="M331.73 417.193C328.637 420.871 325.373 424.754 321.999 428.767L326.998 434.273L331.73 417.193Z" fill="#EDEC06"/>
<path d="M326.998 434.272L318.76 432.619C311.306 441.481 303.276 451.026 294.518 461.436C287.56 469.042 282.739 477.172 279.986 485.807L287.54 500.035L326.998 434.272Z" fill="#E5E209"/>
<path d="M287.538 500.035L342.34 492.91L326.996 434.272L287.538 500.035Z" fill="#EBC60B"/>
<path d="M279.985 485.802C278.184 491.451 277.245 497.313 277.245 503.403C277.245 504.746 277.315 506.068 277.401 507.387L287.539 500.03L279.985 485.802Z" fill="#EDEE22"/>
<path d="M277.401 507.389C278.007 516.909 280.816 525.808 285.807 534.086L287.539 500.032L277.401 507.389Z" fill="#E5E209"/>
<path d="M287.538 500.037L285.806 534.091C286.881 535.873 288.017 537.634 289.294 539.358C290.37 541.096 293.311 544.244 298.133 548.797C302.374 552.16 306.732 554.894 311.203 557.031L342.34 492.912L287.538 500.037Z" fill="#EFE706"/>
<path d="M342.341 492.909L369.363 552.516C372.264 550.545 375.105 548.328 377.862 545.782C380.02 543.371 388.558 533.238 403.327 515.575L407.555 504.964L342.341 492.909Z" fill="#F68412"/>
<path d="M311.206 557.026C319.017 560.763 327.178 562.648 335.689 562.648H337.097C348.697 562.648 359.447 559.243 369.365 552.514L342.343 492.907L311.206 557.026Z" fill="#E9C60C"/>
<path d="M403.322 515.574C404.147 514.59 404.909 513.676 405.774 512.643C407.216 510.936 408.581 509.32 409.965 507.682L407.55 504.963L403.322 515.574Z" fill="#F4A90D"/>
<path d="M409.968 507.68C410.999 506.46 412.038 505.23 413.035 504.047L407.553 504.961L409.968 507.68Z" fill="#F68515"/>
<path d="M601.551 441.4L585.347 447.834C588.313 451.364 591.386 455.022 594.562 458.805L601.551 441.4Z" fill="#E9299E"/>
<path d="M574.07 509.03C574.141 509.131 574.219 509.196 574.289 509.293L583.512 486.324C580.171 482.328 576.041 477.401 571.057 471.475C569.113 469.161 567.256 466.953 565.399 464.743L570.636 504.953C571.79 506.325 572.889 507.628 574.07 509.03Z" fill="#E9299E"/>
<path d="M637.956 346.528H785.932V379.562H637.956V346.528ZM866.481 130.222H899.062V286.342C906.604 274.275 915.806 264.169 926.666 256.023C943.259 243.654 961.812 237.47 982.327 237.47C994.997 237.47 1006.31 239.28 1016.27 242.9C1026.52 246.52 1035.88 251.8 1044.32 258.738C1062.12 274.426 1071.02 296.449 1071.02 324.807V485H1037.99V329.332C1037.99 311.834 1032.41 297.052 1021.24 284.985C1010.08 272.917 996.506 266.884 980.517 266.884C957.287 266.884 937.979 276.085 922.594 294.488C906.906 313.494 899.062 335.215 899.062 359.651V485H866.481V130.222ZM1101.1 242.9H1134.13V397.21C1134.13 414.406 1139.11 428.887 1149.06 440.653C1159.92 454.228 1175.31 461.016 1195.22 461.016C1218.15 461.016 1237.76 451.815 1254.05 433.412C1270.94 414.105 1279.39 392.836 1279.39 369.607V242.9H1311.97V485H1283.46L1281.2 443.82C1276.37 450.457 1271.25 456.491 1265.82 461.921C1260.38 467.05 1254.5 471.575 1248.17 475.497C1231.27 485.754 1212.72 490.883 1192.51 490.883C1164.75 490.883 1142.58 482.285 1125.99 465.089C1109.39 447.591 1101.1 426.323 1101.1 401.283V242.9ZM1564.34 322.997V485H1531.76V325.259C1531.76 308.365 1525.57 294.488 1513.2 283.627C1500.83 272.465 1486.05 266.884 1468.86 266.884C1445.93 266.884 1426.17 276.387 1409.58 295.393C1392.98 314.7 1384.69 336.421 1384.69 360.556V485H1353.92V242.9H1382.42L1383.78 288.152C1391.93 275.783 1401.43 265.526 1412.29 257.381C1430.09 244.107 1450.15 237.47 1472.48 237.47C1498.42 237.47 1520.14 245.313 1537.64 261.001C1555.44 276.387 1564.34 297.052 1564.34 322.997ZM1635.2 171.401H1665.07V242.447H1728.87V271.861H1665.07V425.719C1665.07 438.39 1667.33 447.441 1671.86 452.871C1676.68 458.301 1684.83 461.016 1696.29 461.016C1702.93 461.016 1708.51 460.262 1713.04 458.754C1717.86 457.245 1723.14 455.284 1728.87 452.871V482.285C1724.05 483.793 1718.16 485.151 1711.23 486.358C1704.59 487.866 1697.8 488.62 1690.86 488.62C1672.76 488.62 1658.73 484.547 1648.78 476.402C1637.61 467.955 1632.03 454.379 1632.03 435.675V271.861H1591.31V242.447H1632.03L1635.2 171.401Z" fill="#333333"/>
</g>
<defs>
<filter id="filter0_d_41_34926" x="0" y="0" width="1992" height="720" filterUnits="userSpaceOnUse" color-interpolation-filters="sRGB">
<feFlood flood-opacity="0" result="BackgroundImageFix"/>
<feColorMatrix in="SourceAlpha" type="matrix" values="0 0 0 0 0 0 0 0 0 0 0 0 0 0 0 0 0 0 127 0" result="hardAlpha"/>
<feOffset dy="4"/>
<feGaussianBlur stdDeviation="2"/>
<feComposite in2="hardAlpha" operator="out"/>
<feColorMatrix type="matrix" values="0 0 0 0 0 0 0 0 0 0 0 0 0 0 0 0 0 0 0.1 0"/>
<feBlend mode="normal" in2="BackgroundImageFix" result="effect1_dropShadow_41_34926"/>
<feBlend mode="normal" in="SourceGraphic" in2="effect1_dropShadow_41_34926" result="shape"/>
</filter>
</defs>
</svg>
